<?xml version="1.0" standalone="no"?>
<!DOCTYPE svg PUBLIC "-//W3C//DTD SVG 20010904//EN"
 "http://www.w3.org/TR/2001/REC-SVG-20010904/DTD/svg10.dtd">
<svg version="1.0" xmlns="http://www.w3.org/2000/svg"
 width="113.000000pt" height="79.000000pt" viewBox="0 0 113.000000 79.000000"
 preserveAspectRatio="xMidYMid meet">

<g transform="translate(0.000000,79.000000) scale(0.100000,-0.100000)"
fill="#000000" stroke="none">
<path d="M413 757 c-80 -28 -143 -73 -187 -134 -41 -55 -76 -155 -76 -217 0
-23 -8 -53 -17 -66 -16 -23 -16 -24 0 -11 14 11 17 11 21 0 2 -8 12 -36 20
-64 61 -189 286 -299 478 -234 161 54 268 199 268 364 0 260 -265 449 -507
362z m271 -30 c155 -71 241 -242 207 -408 -7 -31 -18 -64 -25 -74 -14 -19 -23
2 -118 253 -11 28 -24 52 -30 52 -11 0 -6 -153 7 -202 l7 -28 -66 0 -66 0 0
-31 c0 -28 -2 -30 -32 -27 -30 3 -33 6 -36 41 l-3 38 -42 -3 c-35 -3 -43 -7
-45 -26 -5 -34 16 -80 48 -102 43 -31 130 -28 167 6 19 17 24 27 16 31 -28 11
-11 23 33 23 44 0 46 -2 62 -40 13 -30 23 -40 40 -40 12 0 22 -4 22 -9 0 -18
-94 -94 -148 -119 -49 -23 -70 -27 -147 -27 -77 0 -98 4 -147 27 -107 50 -194
161 -213 270 -5 35 -3 39 35 64 22 15 42 25 45 22 3 -2 -4 -22 -15 -43 -11
-22 -20 -53 -19 -70 0 -30 1 -29 15 10 8 22 29 54 46 72 35 36 65 45 54 16 -6
-14 -2 -12 17 5 25 23 62 33 39 10 -17 -17 -15 -33 3 -18 9 7 18 10 21 8 7 -8
-55 -45 -88 -53 -16 -4 -28 -11 -28 -15 0 -21 61 -138 75 -144 20 -7 85 -8 85
-1 0 3 -9 24 -20 46 -45 87 -45 85 14 118 62 36 83 57 88 91 2 19 10 26 31 28
l27 3 0 -70 0 -71 45 0 45 0 0 105 0 105 -70 0 -70 0 0 -31 0 -32 -25 25 c-32
32 -62 38 -186 38 l-99 0 0 -32 c0 -17 -8 -40 -17 -52 -10 -11 0 -6 22 11 22
17 50 34 63 38 12 3 22 11 22 16 0 5 5 9 12 9 18 0 128 -54 128 -62 0 -12 -38
-10 -45 2 -9 15 -25 12 -25 -4 0 -9 -24 -17 -75 -25 -46 -8 -88 -21 -110 -37
-20 -13 -39 -24 -42 -24 -3 0 -2 24 1 53 19 142 125 264 265 304 68 19 179 10
245 -20z m-200 -273 c9 -3 16 -15 16 -25 0 -22 -3 -23 -28 -10 -9 5 -26 13
-37 17 -19 6 -18 7 5 14 14 5 26 8 27 9 1 1 8 -2 17 -5z"/>
</g>
</svg>
